<svg width="33" height="28" viewBox="0 0 33 28" fill="none" xmlns="http://www.w3.org/2000/svg">
<path fill-rule="evenodd" clip-rule="evenodd" d="M16.373 7.50098C11.954 7.50098 8.37305 11.082 8.37305 15.501C8.37305 19.919 11.954 23.501 16.373 23.501C20.791 23.501 24.373 19.919 24.373 15.501C24.373 11.083 20.791 7.50098 16.373 7.50098ZM20.928 19.406C18.772 21.922 14.985 22.213 12.469 20.056C9.95205 17.9 9.66205 14.112 11.819 11.597C13.974 9.07998 17.762 8.78998 20.278 10.947C22.793 13.102 23.084 16.891 20.928 19.406Z" fill="white"/>
<path fill-rule="evenodd" clip-rule="evenodd" d="M16.373 11.501C14.164 11.501 12.374 13.292 12.373 15.5V15.502C12.373 15.777 12.597 16.002 12.873 16.002C13.149 16.002 13.373 15.777 13.373 15.502V15.5C13.374 13.844 14.716 12.501 16.373 12.501C16.649 12.501 16.873 12.277 16.873 12.001C16.873 11.725 16.649 11.501 16.373 11.501Z" fill="white"/>
<path fill-rule="evenodd" clip-rule="evenodd" d="M29.865 6.542L25.531 5.819L24.158 2.385C23.699 1.24 22.605 0.5 21.373 0.5H11.373C10.141 0.5 9.04705 1.24 8.58705 2.386L7.21505 5.819L2.88205 6.542C1.42805 6.783 0.373047 8.027 0.373047 9.5V24.5C0.373047 26.154 1.71905 27.5 3.37305 27.5H29.373C31.027 27.5 32.373 26.154 32.373 24.5V9.5C32.373 8.027 31.318 6.783 29.865 6.542ZM30.373 24.5C30.373 25.053 29.926 25.5 29.373 25.5H3.37305C2.82005 25.5 2.37305 25.053 2.37305 24.5V9.5C2.37305 9.011 2.72705 8.594 3.20905 8.514L8.65305 7.607L10.444 3.129C10.597 2.75 10.964 2.5 11.373 2.5H21.373C21.781 2.5 22.148 2.749 22.301 3.129L24.092 7.607L29.537 8.514C30.019 8.594 30.373 9.011 30.373 9.5V24.5Z" fill="white"/>
</svg>
