<svg width="20" height="20" viewBox="0 0 20 20" fill="none" xmlns="http://www.w3.org/2000/svg">
<g id="clock-icon 1" clip-path="url(#clip0_1915_7208)">
<g id="Group">
<path id="Vector" fill-rule="evenodd" clip-rule="evenodd" d="M10 0.000976562C15.5225 0.000976562 20 4.47852 20 10.001C20 15.5234 15.5225 20.001 10 20.001C4.47754 20.001 0 15.5234 0 10.001C0 4.47852 4.47754 0.000976562 10 0.000976562ZM8.61328 4.96842H9.83561C10.0586 4.96842 10.2425 5.15234 10.2425 5.37533V10.0856H14.541C14.7656 10.0856 14.9479 10.2695 14.9479 10.4925V11.7148C14.9479 11.9395 14.764 12.1217 14.541 12.1217H8.20475V5.37533C8.20475 5.15072 8.38867 4.96842 8.61328 4.96842ZM10 2.27148C14.2692 2.27148 17.7295 5.73177 17.7295 10.001C17.7295 14.2702 14.2692 17.7305 10 17.7305C5.73079 17.7305 2.27051 14.2702 2.27051 10.001C2.27051 5.7334 5.73079 2.27148 10 2.27148Z" fill="#E5E4E7"/>
</g>
</g>
<defs>
<clipPath id="clip0_1915_7208">
<rect width="20" height="20" fill="white" transform="translate(0 0.000976562)"/>
</clipPath>
</defs>
</svg>
