<svg width="20" height="20" viewBox="0 0 20 20" fill="none" xmlns="http://www.w3.org/2000/svg">
<g id="Frame 239">
<path id="path11" d="M15.6423 2.36047C14.8827 1.5939 13.9954 0.999686 13.0035 0.593108C10.0185 -0.625838 6.61852 0.072319 4.3428 2.36363C2.83323 3.88784 2 5.82836 2 7.83494C2 9.83836 2.83271 11.781 4.3428 13.3036L5.17342 14.1334C6.8404 15.7939 8.27793 17.2276 9.51132 19.2204L9.99111 20.001L10.474 19.2204C11.7074 17.2276 13.1449 15.7939 14.8091 14.1352L15.642 13.301C18.7859 10.1315 18.7859 5.53021 15.6423 2.36047ZM12.4738 10.696C11.1034 12.0797 8.88196 12.0797 7.51126 10.696C6.14108 9.31704 6.14108 7.07757 7.51126 5.696C8.88196 4.31705 11.1034 4.31705 12.4738 5.696C13.8411 7.07757 13.8411 9.31652 12.4738 10.696Z" fill="#E5E4E7"/>
</g>
</svg>
