<svg width="109" height="20" viewBox="0 0 109 20" fill="none" xmlns="http://www.w3.org/2000/svg">
<path d="M5.06982 14.2213V8.89366H0V6.70247H5.06982V1.33189H7.3899V6.70247L12.3523 6.70246V8.89365L7.3899 8.89366V14.2213H5.06982Z" fill="#FF8D72"/>
<path d="M14.0506 15.2954V0.257769H16.607V6.50911H23.868V0.257769H26.4244V15.2954H23.868V8.78623H16.607V15.2954H14.0506Z" fill="#EA3C12"/>
<path d="M33.2918 15.2954C32.4612 15.2954 31.7164 15.102 31.0577 14.7153C30.3989 14.3144 29.8762 13.7844 29.4895 13.1257C29.1171 12.4525 28.9309 11.715 28.9309 10.913C28.9309 10.2828 29.0741 9.68849 29.3606 9.12995C29.6613 8.55709 30.0767 8.07732 30.6066 7.69064C30.0767 7.30396 29.6685 6.83851 29.3821 6.29429C29.0956 5.73575 28.9524 5.15573 28.9524 4.55422C28.9524 3.75222 29.1386 3.02898 29.511 2.38451C29.8976 1.74005 30.4132 1.22447 31.0577 0.83779C31.7021 0.451109 32.4183 0.257769 33.2059 0.257769H39.2639V2.53489H33.4852C33.1271 2.53489 32.7977 2.62798 32.497 2.81416C32.1962 2.98602 31.9527 3.22232 31.7666 3.52308C31.5947 3.82383 31.5088 4.16754 31.5088 4.55422C31.5088 4.89794 31.6019 5.22018 31.7881 5.52093C31.9742 5.82168 32.2177 6.06515 32.5185 6.25132C32.8192 6.42318 33.1557 6.50911 33.5281 6.50911H38.512V8.78623H33.657C33.2274 8.78623 32.8479 8.88648 32.5185 9.08698C32.189 9.28749 31.9313 9.55243 31.7451 9.88183C31.5733 10.1969 31.4873 10.5478 31.4873 10.9345C31.4873 11.3069 31.5733 11.6577 31.7451 11.9871C31.9313 12.3021 32.182 12.5599 32.497 12.7605C32.8264 12.9466 33.1987 13.0397 33.6141 13.0397H39.2639V15.2954H33.2918Z" fill="#EA3C12"/>
<path d="M49.7264 19.9785C48.9674 19.9785 48.3014 19.8353 47.7286 19.5489C47.1558 19.2768 46.7189 18.8686 46.4182 18.3244C46.1174 17.7945 45.967 17.1571 45.967 16.4124C45.967 15.7393 46.0959 14.9946 46.3537 14.1783C46.6258 13.362 47.1128 12.5241 47.8145 11.6649C48.5162 10.8056 49.5116 9.98208 50.8005 9.1944V2.51341H47.6856V0.257769H53.3569V16.0258C53.3569 16.7848 53.2138 17.4651 52.9273 18.0666C52.6552 18.6681 52.2471 19.1335 51.7028 19.4629C51.1729 19.8066 50.5141 19.9785 49.7264 19.9785ZM49.5546 17.6799C49.7981 17.6799 50.0129 17.6154 50.199 17.4866C50.3852 17.3577 50.5285 17.1715 50.6287 16.928C50.7289 16.6989 50.7791 16.4196 50.7791 16.0902V11.8152C49.9914 12.4454 49.4257 13.0469 49.082 13.6197C48.7382 14.1926 48.5306 14.7011 48.459 15.145C48.3873 15.5746 48.3516 15.9041 48.3516 16.1332C48.3516 16.6345 48.4733 17.0139 48.7168 17.2717C48.9603 17.5438 49.2395 17.6799 49.5546 17.6799Z" fill="#EA3C12"/>
<path d="M62.5057 15.5532C61.317 15.5532 60.2643 15.3096 59.3478 14.8228C58.4313 14.3215 57.7079 13.6125 57.1781 12.696C56.6625 11.7795 56.4047 10.6838 56.4047 9.40922V0.257769H58.9611V9.62404C58.9611 10.2828 59.1043 10.8915 59.3908 11.45C59.6915 12.0086 60.1069 12.4597 60.6367 12.8034C61.1666 13.1329 61.7968 13.2975 62.5272 13.2975C63.2576 13.2975 63.8806 13.1329 64.3961 12.8034C64.926 12.4597 65.3342 12.0086 65.6206 11.45C65.9071 10.8915 66.0503 10.2828 66.0503 9.62404V0.257769H68.6281V9.40922C68.6281 10.6838 68.3633 11.7795 67.8333 12.696C67.3034 13.6125 66.5801 14.3215 65.6636 14.8228C64.747 15.3096 63.6944 15.5532 62.5057 15.5532Z" fill="#EA3C12"/>
<path d="M75.6965 15.2954C74.8516 15.2954 74.1068 15.1092 73.4623 14.7368C72.8322 14.3501 72.3381 13.8346 71.98 13.1901C71.6363 12.5456 71.4644 11.8295 71.4644 11.0419V0.257769H74.0423V11.3641C74.0423 11.8224 74.1927 12.2162 74.4934 12.5456C74.8086 12.8751 75.2096 13.0397 75.6965 13.0397H79.6922V15.2954H75.6965Z" fill="#EA3C12"/>
<path d="M92.7041 20C91.9307 20 91.2505 19.8568 90.6633 19.5704C90.0904 19.2839 89.6464 18.8614 89.3314 18.3029C89.0306 17.7586 88.8802 17.1071 88.8802 16.348C88.8802 16.1619 88.8874 15.9685 88.9017 15.768C88.916 15.5818 88.9375 15.3885 88.9662 15.188C87.7918 15.2309 86.7177 15.0663 85.7438 14.6939C84.7699 14.3215 83.925 13.7916 83.2089 13.1042C82.5072 12.4168 81.9629 11.6076 81.5763 10.6767C81.1896 9.73147 80.9962 8.70749 80.9962 7.60473C80.9962 6.55926 81.1753 5.57823 81.5333 4.66165C81.8913 3.74508 82.4069 2.93591 83.08 2.23416C83.7532 1.53241 84.5623 0.988185 85.5075 0.601504C86.4527 0.200502 87.5054 0 88.6654 0C89.8397 0 90.8996 0.19334 91.8448 0.58002C92.79 0.95238 93.5991 1.48228 94.2723 2.16971C94.9454 2.85714 95.461 3.65199 95.819 4.55424C96.177 5.44218 96.3561 6.40172 96.3561 7.43287V16.0258C96.3561 16.7849 96.2129 17.4651 95.9264 18.0666C95.6543 18.6681 95.2462 19.1407 94.7019 19.4844C94.1577 19.8281 93.4917 20 92.7041 20ZM92.5322 17.7014C92.9189 17.7014 93.2197 17.5582 93.4345 17.2718C93.6636 16.9853 93.7782 16.5915 93.7782 16.0902V11.6219C93.1767 12.0802 92.7041 12.5314 92.3604 12.9753C92.0166 13.4192 91.7661 13.8418 91.6085 14.2427C91.4653 14.6437 91.3722 15.0018 91.3292 15.3169C91.3005 15.6319 91.2863 15.8826 91.2863 16.0687C91.2863 16.4125 91.3435 16.706 91.4581 16.9495C91.5727 17.193 91.7231 17.3792 91.9092 17.5081C92.1098 17.6369 92.3174 17.7014 92.5322 17.7014ZM88.6654 12.9538C88.8945 12.9538 89.1023 12.9466 89.2884 12.9323C89.4745 12.9037 89.6751 12.8679 89.8899 12.8249C90.119 12.3953 90.4055 11.9584 90.7492 11.5145C91.0929 11.0706 91.5154 10.6409 92.0166 10.2256C92.5179 9.79592 93.105 9.38776 93.7782 9.00107V7.43287C93.7782 6.70247 93.6493 6.0222 93.3915 5.39205C93.148 4.7619 92.79 4.21769 92.3174 3.7594C91.8591 3.28679 91.322 2.92159 90.7062 2.6638C90.0904 2.3917 89.4101 2.25564 88.6654 2.25564C87.935 2.25564 87.2548 2.3917 86.6246 2.6638C86.0088 2.93591 85.4717 3.31543 85.0134 3.80236C84.5551 4.27497 84.1971 4.84068 83.9393 5.49946C83.6815 6.14393 83.5526 6.84568 83.5526 7.60473C83.5526 8.36377 83.6815 9.07269 83.9393 9.73147C84.1971 10.3759 84.5551 10.9417 85.0134 11.4286C85.4717 11.9012 86.0088 12.2736 86.6246 12.5457C87.2548 12.8177 87.935 12.9538 88.6654 12.9538Z" fill="#EA3C12"/>
<path d="M102.878 15.2954C102.048 15.2954 101.303 15.102 100.644 14.7153C99.9855 14.3144 99.4628 13.7844 99.0761 13.1257C98.7037 12.4525 98.5175 11.715 98.5175 10.913C98.5175 10.2828 98.6608 9.68849 98.9471 9.12995C99.2479 8.55709 99.6632 8.07732 100.193 7.69064C99.6632 7.30396 99.2551 6.83851 98.9686 6.29429C98.6823 5.73575 98.5391 5.15573 98.5391 4.55422C98.5391 3.75222 98.7252 3.02898 99.0975 2.38451C99.4842 1.74005 99.9998 1.22447 100.644 0.83779C101.289 0.451109 102.005 0.257769 102.792 0.257769H108.851V2.53489H103.072C102.714 2.53489 102.384 2.62798 102.084 2.81416C101.783 2.98602 101.539 3.22232 101.353 3.52308C101.181 3.82383 101.095 4.16754 101.095 4.55422C101.095 4.89794 101.188 5.22018 101.375 5.52093C101.561 5.82168 101.804 6.06515 102.105 6.25132C102.406 6.42318 102.742 6.50911 103.115 6.50911H108.099V8.78623H103.244C102.814 8.78623 102.434 8.88648 102.105 9.08698C101.776 9.28749 101.518 9.55243 101.332 9.88183C101.16 10.1969 101.074 10.5478 101.074 10.9345C101.074 11.3069 101.16 11.6577 101.332 11.9871C101.518 12.3021 101.769 12.5599 102.084 12.7605C102.413 12.9466 102.785 13.0397 103.201 13.0397H108.851V15.2954H102.878Z" fill="#EA3C12"/>
</svg>
